<svg id="Capa_1" enable-background="new 0 0 511.581 511.581" height="512" viewBox="0 0 511.581 511.581" width="512" xmlns="http://www.w3.org/2000/svg"><g><g><path d="m206.634 138.396h20.063c4.143 0 7.5-3.358 7.5-7.5s-3.357-7.5-7.5-7.5h-20.063c-4.143 0-7.5 3.358-7.5 7.5s3.358 7.5 7.5 7.5z"/><path d="m206.634 177.019h20.063c4.143 0 7.5-3.358 7.5-7.5s-3.357-7.5-7.5-7.5h-20.063c-4.143 0-7.5 3.358-7.5 7.5s3.358 7.5 7.5 7.5z"/><path d="m206.634 215.642h20.063c4.143 0 7.5-3.358 7.5-7.5s-3.357-7.5-7.5-7.5h-20.063c-4.143 0-7.5 3.358-7.5 7.5s3.358 7.5 7.5 7.5z"/><path d="m461.539 424.812-102.245-181.23c-.086-.153-.178-.303-.274-.45-7.17-10.85-10.959-23.458-10.959-36.462v-105.83h3.908c15.9 0 28.837-12.936 28.837-28.836v-43.168c0-15.9-12.937-28.836-28.837-28.836h-38.326c-4.143 0-7.5 3.358-7.5 7.5s3.357 7.5 7.5 7.5h38.326c7.63 0 13.837 6.207 13.837 13.836v43.167c0 7.629-6.207 13.836-13.837 13.836h-11.409-169.539-11.408c-7.63 0-13.837-6.207-13.837-13.836v-43.167c0-7.629 6.207-13.836 13.837-13.836h119.084c4.143 0 7.5-3.358 7.5-7.5s-3.357-7.5-7.5-7.5h-119.084c-15.9 0-28.837 12.936-28.837 28.836v43.167c0 15.9 12.937 28.836 28.837 28.836h3.908v105.829c0 13.004-3.789 25.612-10.959 36.462-.097.146-.188.296-.274.45l-102.225 181.196c-10.461 18.118-10.461 39.751 0 57.87 10.46 18.118 29.195 28.935 50.116 28.935h311.223c20.921 0 39.656-10.817 50.116-28.935 10.454-18.106 10.46-39.724.021-57.834zm-13.011 50.334c-7.749 13.422-21.628 21.435-37.126 21.435h-311.223c-15.498 0-29.377-8.013-37.126-21.435s-7.749-29.448.037-42.935l102.136-181.035c8.699-13.26 13.295-28.643 13.295-44.506v-105.83h154.539v105.829c0 15.863 4.596 31.247 13.295 44.506l102.136 181.035c.013.022.024.043.037.065 7.749 13.423 7.749 29.449 0 42.871z"/><path d="m325.447 252.289c-5.439-10.199-15.999-16.535-27.559-16.535h-80.213c-11.341 0-21.805 6.159-27.309 16.074l-65.937 118.772c-2.01 3.621-.704 8.187 2.917 10.197 3.623 2.011 8.187.705 10.198-2.917l65.938-118.772c2.86-5.153 8.299-8.354 14.193-8.354h80.213c6.008 0 11.496 3.293 14.324 8.594l97.496 182.785c.039.074.08.147.122.22 2.333 4.041 2.333 8.864 0 12.905s-6.511 6.453-11.177 6.453h-285.726c-4.666 0-8.844-2.413-11.177-6.453s-2.333-8.864 0-12.905c.021-.036.042-.073.063-.11l19.218-34.618c2.01-3.622.704-8.187-2.917-10.197-3.623-2.012-8.188-.704-10.198 2.917l-19.19 34.569c-5.01 8.724-4.998 19.127.034 27.844 5.045 8.737 14.079 13.953 24.168 13.953h285.727c10.089 0 19.123-5.216 24.168-13.953 5.021-8.697 5.043-19.074.067-27.786z"/><path d="m276.499 363.732c19.994 0 36.261-16.267 36.261-36.261 0-19.995-16.267-36.261-36.261-36.261s-36.261 16.267-36.261 36.261c.001 19.995 16.267 36.261 36.261 36.261zm0-57.522c11.724 0 21.261 9.538 21.261 21.261s-9.537 21.261-21.261 21.261-21.261-9.538-21.261-21.261c.001-11.723 9.538-21.261 21.261-21.261z"/><path d="m220.063 372.108c-14.092 0-25.556 11.464-25.556 25.555s11.464 25.555 25.556 25.555c14.091 0 25.555-11.464 25.555-25.555s-11.464-25.555-25.555-25.555zm0 36.11c-5.82 0-10.556-4.735-10.556-10.555s4.735-10.555 10.556-10.555 10.555 4.735 10.555 10.555-4.735 10.555-10.555 10.555z"/></g><g><circle cx="300.014" cy="415.718" r="7.838"/></g><g><circle cx="341.249" cy="379.608" r="7.838"/></g><g><circle cx="349.087" cy="418.813" r="7.838"/></g><g><circle cx="226.698" cy="282.603" r="7.838"/></g><g><circle cx="208.828" cy="335.024" r="7.838"/></g></g></svg>